<svg xmlns="http://www.w3.org/2000/svg" viewBox="0 0 500 500"><g id="freepik--Floor--inject-125"><ellipse cx="250" cy="345.59" rx="231.67" ry="136.49" style="fill:#f5f5f5"></ellipse></g><g id="freepik--Shadows--inject-125"><polygon points="161.05 374.28 95.64 412.05 52.87 387.36 118.28 349.59 161.05 374.28" style="fill:#e6e6e6"></polygon><polygon points="294.75 346.23 235.31 379.98 162.9 337.71 222.34 303.97 294.75 346.23" style="fill:#e6e6e6"></polygon><polygon points="440.34 329.39 280.39 237.45 302.37 224.5 462.32 316.43 440.34 329.39" style="fill:#e6e6e6"></polygon><ellipse cx="319.03" cy="394.77" rx="58.01" ry="34.18" style="fill:#e6e6e6"></ellipse><ellipse cx="140.53" cy="326.56" rx="51.07" ry="30.09" style="fill:#e6e6e6"></ellipse><ellipse cx="200.5" cy="414" rx="18.22" ry="10.73" style="fill:#e6e6e6"></ellipse><ellipse cx="417" cy="362.63" rx="20.73" ry="12.21" style="fill:#e6e6e6"></ellipse></g><g id="freepik--Canvas--inject-125"><polygon points="447 317.13 442.44 319.62 442.44 168.97 447 166.48 447 317.13" style="fill:#e0e0e0"></polygon><polygon points="442.44 168.97 296.38 84.33 300.94 81.84 447 166.48 442.44 168.97" style="fill:#e6e6e6"></polygon><polygon points="442.44 319.62 296.38 234.98 296.38 84.33 442.44 168.97 442.44 319.62" style="fill:#f0f0f0"></polygon><polygon points="421 307.33 416.43 309.82 416.43 188.66 421 186.17 421 307.33" style="fill:#e0e0e0"></polygon><polygon points="416.43 188.66 291.63 116.6 296.19 114.11 421 186.17 416.43 188.66" style="fill:#e6e6e6"></polygon><polygon points="416.43 309.82 291.63 237.76 291.63 116.6 416.43 188.66 416.43 309.82" style="fill:#f0f0f0"></polygon></g><g id="freepik--Plant--inject-125"><path d="M416.93,335.4S405,323.77,411.8,304.29c3.8-10.93,16.38-18.94,23.55-19.7a33.43,33.43,0,0,0-5.6,9.45l-9,6,8.3-2.6-1.77,7.11s-7.72,4.66-8.86,5.68l8.32-2.17S426.07,328.17,416.93,335.4Z" style="fill:#FF81AE"></path><path d="M416.93,335.4S405,323.77,411.8,304.29c3.8-10.93,16.38-18.94,23.55-19.7a33.43,33.43,0,0,0-5.6,9.45l-9,6,8.3-2.6-1.77,7.11s-7.72,4.66-8.86,5.68l8.32-2.17S426.07,328.17,416.93,335.4Z" style="opacity:0.4"></path><path d="M416.93,335.4s-6.17-24.34,3-38.53C419.89,296.87,409.19,309.39,416.93,335.4Z" style="fill:#fff"></path><path d="M430.56,338.7,416,338.51h-.15l-14.58.19s-.16,17.95,5.37,25.26h0c1.53,1.94,5.11,3.3,9.28,3.3s7.77-1.37,9.29-3.31C430.72,356.63,430.56,338.7,430.56,338.7Z" style="fill:#37474f"></path><ellipse cx="415.91" cy="338.7" rx="14.65" ry="7.86" style="fill:#455a64"></ellipse><path d="M415.91,336.61c5,0,9.31,1.62,10.81,3.86a3.13,3.13,0,0,0,.59-1.77c0-3.11-5.1-5.63-11.4-5.63s-11.39,2.52-11.39,5.63a3.19,3.19,0,0,0,.58,1.77C406.6,338.23,410.87,336.61,415.91,336.61Z" style="fill:#263238"></path><path d="M415.91,336.61c-5,0-9.31,1.62-10.81,3.86,1.5,2.23,5.77,3.85,10.81,3.85s9.31-1.62,10.81-3.85C425.22,338.23,421,336.61,415.91,336.61Z" style="fill:#e0e0e0"></path><path d="M416.09,341.44s-5.64-.22-10.49-7.72c-2-3.09-3-4.72-3-4.72l7.87-.58-8.81-2.2-4.17-6.38,7.32-.54s-5.45-1.91-9.34-1.93c0,0-6.75-11.92-8.72-13.62A38.26,38.26,0,0,1,413.44,317C424.54,330.11,417.74,341.77,416.09,341.44Z" style="fill:#FF81AE"></path><path d="M416.09,341.44s3.53-21.27-19-34.06C397.09,307.38,420.47,318.61,416.09,341.44Z" style="fill:#fff"></path><path d="M416.09,341.44s5.11.33,10.19-6c2.09-2.6,3.11-4,3.11-4l-7-1.27,8.16-1.16,4.36-5.36-6.55-1.18a33.14,33.14,0,0,1,8.61-.86s7.21-10.12,9.15-11.47a34.7,34.7,0,0,0-25.3,9.44C409.54,330.42,414.57,341.59,416.09,341.44Z" style="fill:#FF81AE"></path><path d="M416.09,341.44s5.11.33,10.19-6c2.09-2.6,3.11-4,3.11-4l-7-1.27,8.16-1.16,4.36-5.36-6.55-1.18a33.14,33.14,0,0,1,8.61-.86s7.21-10.12,9.15-11.47a34.7,34.7,0,0,0-25.3,9.44C409.54,330.42,414.57,341.59,416.09,341.44Z" style="opacity:0.2"></path><path d="M416.09,341.44s-1.18-19.52,20.35-28.94C436.44,312.5,414.28,320.43,416.09,341.44Z" style="fill:#fff"></path></g><g id="freepik--Painting--inject-125"><polygon points="279.18 324.64 236.47 349.11 236.47 344.88 279.18 320.42 279.18 324.64" style="fill:#263238"></polygon><polygon points="239.43 375.62 236.23 377.46 236.23 271.34 239.43 269.49 239.43 375.62" style="fill:#455a64"></polygon><polygon points="233.03 375.62 236.23 377.46 236.23 271.34 233.03 269.49 233.03 375.62" style="fill:#263238"></polygon><polygon points="286.5 349.46 283.3 351.31 264.22 245.18 267.42 243.34 286.5 349.46" style="fill:#455a64"></polygon><polygon points="280.1 349.46 283.3 351.31 264.22 245.18 261.02 243.34 280.1 349.46" style="fill:#263238"></polygon><polygon points="192.62 322.84 195.82 324.69 214.9 218.56 211.7 216.72 192.62 322.84" style="fill:#263238"></polygon><polygon points="199.02 322.84 195.82 324.69 214.9 218.56 218.1 216.72 199.02 322.84" style="fill:#455a64"></polygon><polygon points="280.79 326.26 238.08 350.72 238.08 346.49 280.79 322.03 280.79 326.26" style="fill:#455a64"></polygon><polygon points="218.62 93.91 225.1 164.59 232.53 164.59 223.58 96.77 218.62 93.91" style="fill:#263238"></polygon><polygon points="232.12 91.87 223.58 96.77 218.62 93.91 227.16 89 232.12 91.87" style="fill:#37474f"></polygon><polygon points="223.58 96.77 231.5 171.22 240.84 170.7 232.12 91.87 223.58 96.77" style="fill:#455a64"></polygon><polygon points="219.44 281.45 219.44 285.16 205.86 277.32 205.86 273.61 219.44 281.45" style="fill:#FF81AE"></polygon><polygon points="219.44 281.45 219.44 285.16 205.86 277.32 205.86 273.61 219.44 281.45" style="fill:#fff;opacity:0.2"></polygon><polygon points="278.79 250.89 219.44 285.16 219.44 281.45 278.79 247.18 278.79 250.89" style="fill:#FF81AE"></polygon><polygon points="278.79 250.89 219.44 285.16 219.44 281.45 278.79 247.18 278.79 250.89" style="fill:#fff;opacity:0.4"></polygon><polygon points="278.79 247.18 219.44 281.45 205.86 273.61 265.21 239.35 278.79 247.18" style="fill:#FF81AE"></polygon><polygon points="278.79 247.18 219.44 281.45 205.86 273.61 265.21 239.35 278.79 247.18" style="fill:#fff;opacity:0.7000000000000001"></polygon><polygon points="278.96 110.15 195.45 158.37 189.44 154.9 272.95 106.68 278.96 110.15" style="fill:#FF81AE"></polygon><polygon points="278.96 110.15 195.45 158.37 189.44 154.9 272.95 106.68 278.96 110.15" style="opacity:0.2"></polygon><path d="M286.24,237.74l-11.87,6.86h0L233.85,268l-31.12,18-.89-15.66-1.08-18.86-1.61-28.21-1-18-.91-16-1.77-30.87,63.22-36.5L279,110.15l1.28,22.4,2.32,40.65,1,17.82v.19l.6,10.42Z" style="fill:#FF81AE"></path><path d="M286.24,237.74l-11.87,6.86h0L233.85,268l-31.12,18-.89-15.66-1.08-18.86-1.61-28.21-1-18-.91-16-1.77-30.87,63.22-36.5L279,110.15l1.28,22.4,2.32,40.65,1,17.82v.19l.6,10.42Z" style="opacity:0.4"></path><polygon points="202.73 285.96 195.45 158.37 189.44 154.9 196.73 282.49 202.73 285.96" style="fill:#FF81AE"></polygon><polygon points="202.73 285.96 195.45 158.37 189.44 154.9 196.73 282.49 202.73 285.96" style="opacity:0.4"></polygon><path d="M284.36,204.63l-.18-3L283.57,191l-2.83-49.58a13.23,13.23,0,0,0-6.69,1.33c-3.28,1.54-6.09,3.94-9.29,5.65s-7.14,2.67-10.42,1.13c-3.71-1.74-5.65-6.23-9.49-7.66-4.07-1.5-8.41,1-12.12,3.22s-8.24,4.45-12.46,3.15a9.53,9.53,0,0,1-3.65-2.13l-21.18,12.23L197,185.7a12.84,12.84,0,0,0,2.47.18c4-.19,7.35-3,11.1-4.48a28.7,28.7,0,0,1,5.85-1.42,7.8,7.8,0,0,1,3.69,0c2.95,1,3.69,4.7,4.4,7.73,1,4.44,3.55,9.13,8,10.26,2.95.76,6.05-.26,8.8-1.57s5.4-2.93,8.39-3.49a7.26,7.26,0,0,1,4.08.25,9.28,9.28,0,0,1,4,4.09,73.44,73.44,0,0,0,4.3,7,11.79,11.79,0,0,0,6.61,4.63c2.73.58,5.56-.27,8.14-1.36S281.71,205.19,284.36,204.63Z" style="fill:#FF81AE"></path><path d="M284.36,204.63l-.18-3L283.57,191l-2.83-49.58a13.23,13.23,0,0,0-6.69,1.33c-3.28,1.54-6.09,3.94-9.29,5.65s-7.14,2.67-10.42,1.13c-3.71-1.74-5.65-6.23-9.49-7.66-4.07-1.5-8.41,1-12.12,3.22s-8.24,4.45-12.46,3.15a9.53,9.53,0,0,1-3.65-2.13l-21.18,12.23L197,185.7a12.84,12.84,0,0,0,2.47.18c4-.19,7.35-3,11.1-4.48a28.7,28.7,0,0,1,5.85-1.42,7.8,7.8,0,0,1,3.69,0c2.95,1,3.69,4.7,4.4,7.73,1,4.44,3.55,9.13,8,10.26,2.95.76,6.05-.26,8.8-1.57s5.4-2.93,8.39-3.49a7.26,7.26,0,0,1,4.08.25,9.28,9.28,0,0,1,4,4.09,73.44,73.44,0,0,0,4.3,7,11.79,11.79,0,0,0,6.61,4.63c2.73.58,5.56-.27,8.14-1.36S281.71,205.19,284.36,204.63Z" style="opacity:0.2"></path><path d="M235.32,175.6a23.68,23.68,0,0,0,13.41,18.53c12.65,6.19,18.92-6.41,18.92-6.41L250,166.51Z" style="fill:#FF81AE"></path><path d="M235.32,175.6a23.68,23.68,0,0,0,13.41,18.53c12.65,6.19,18.92-6.41,18.92-6.41L250,166.51Z" style="fill:#FF81AE"></path><path d="M235.32,175.6a23.68,23.68,0,0,0,13.41,18.53c12.65,6.19,18.92-6.41,18.92-6.41L250,166.51Z" style="opacity:0.5"></path><path d="M283.58,191.21v2.48l-22.33-4.18-7.44-13.78,2.08-7.48s-5.13,4.1-12.11-.55-7.49,5.57-7.49,5.57-4.49-1-3.66-5.57,11.31-16.41,18.3-10.34c0,0,5.92-2.82,7.74,4.93s5.7,14.81,10.55,11.77c3.89-2.44,10.76-3.67,13.34-.86l1,17.82Z" style="fill:#FF81AE"></path><path d="M283.58,191.21v2.48l-22.33-4.18-7.44-13.78,2.08-7.48s-5.13,4.1-12.11-.55-7.49,5.57-7.49,5.57-4.49-1-3.66-5.57,11.31-16.41,18.3-10.34c0,0,5.92-2.82,7.74,4.93s5.7,14.81,10.55,11.77c3.89-2.44,10.76-3.67,13.34-.86l1,17.82Z" style="opacity:0.5"></path><path d="M275.87,214.15s10.55,19-1.5,30.45L202.73,286l-1.24-15.12s.12-.2.35-.54c2.15-3.32,13.72-20.78,20.89-23.46,0,0,8.11-11,27.05-23,4.26-2.7,7.46-6.24,6.69-11,0,0-5.81,1.23-6.61-6.74-3.29,3-11.87,10.64-13.55,11.89-2.1,1.55-22.7-1.86-22.7-1.86-11.59,1.52-9.56-4.4-9.56-4.4s-2.84-.91-2.54-1.89,6.22-.08,6.72,0c-.26-.24-1.95-1.82-1.29-2.85s5.75,1.95,5.75,1.95l21.59.46s8.83-11.61,10.42-13.9,8.53-8.15,8.53-8.15l-1.34-2.45a10.1,10.1,0,0,1-2.42,1.69c-3.95,1.85-8.15-3.16-12.09-10.58a10.61,10.61,0,0,1,3.44-14.41c2.61-1.71,9.6-4.57,14.43,5.22a14.38,14.38,0,0,1,.64,1.48c1.84-.75,3.06.93,3.39,1.62a4.87,4.87,0,0,1-2.27,6.34l4.25,7.79s8.89-1.91,10.18-2c3.58-.14,10.4,7.08,12.13,9l.61,10.61L276,196.22Z" style="fill:#FF81AE"></path><path d="M275.87,214.15s10.55,19-1.5,30.45L202.73,286l-1.24-15.12s.12-.2.35-.54c2.15-3.32,13.72-20.78,20.89-23.46,0,0,8.11-11,27.05-23,4.26-2.7,7.46-6.24,6.69-11,0,0-5.81,1.23-6.61-6.74-3.29,3-11.87,10.64-13.55,11.89-2.1,1.55-22.7-1.86-22.7-1.86-11.59,1.52-9.56-4.4-9.56-4.4s-2.84-.91-2.54-1.89,6.22-.08,6.72,0c-.26-.24-1.95-1.82-1.29-2.85s5.75,1.95,5.75,1.95l21.59.46s8.83-11.61,10.42-13.9,8.53-8.15,8.53-8.15l-1.34-2.45a10.1,10.1,0,0,1-2.42,1.69c-3.95,1.85-8.15-3.16-12.09-10.58a10.61,10.61,0,0,1,3.44-14.41c2.61-1.71,9.6-4.57,14.43,5.22a14.38,14.38,0,0,1,.64,1.48c1.84-.75,3.06.93,3.39,1.62a4.87,4.87,0,0,1-2.27,6.34l4.25,7.79s8.89-1.91,10.18-2c3.58-.14,10.4,7.08,12.13,9l.61,10.61L276,196.22Z" style="fill:#fff;opacity:0.4"></path><path d="M274.37,244.6h0L233.85,268c-.61-6.62-3.08-15.27-11.12-21.16,0,0,8.11-11,27.05-23,4.26-2.7,7.46-6.24,6.69-11,0,0-6.87,1.47-6.69-9,.07-4.6.29-13.75.29-13.75l3.16-2.76s-2.49,16.51,22.76,8.92l-.12,17.93S286.42,233.16,274.37,244.6Z" style="fill:#FF81AE"></path><polygon points="202.51 283.28 227.53 257.82 248.19 241.54 227.43 255.77 202.33 281.11 202.51 283.28" style="fill:#FF81AE"></polygon><polygon points="202.51 283.28 227.53 257.82 248.19 241.54 227.43 255.77 202.33 281.11 202.51 283.28" style="opacity:0.2"></polygon><path d="M272.2,193.63l.73,1.64a22.82,22.82,0,0,1,1.87,7.16l1.07,11.72h0l.12-17.92h0Z" style="fill:#FF81AE"></path><polyline points="274.8 202.44 275.87 214.15 275.87 214.14 275.99 196.22 275.99 196.22 275.99 196.22 272.2 193.63 272.93 195.27" style="opacity:0.30000000000000004"></polyline><path d="M255.89,168.25s-5.89,3-12.11.8c0,0-1.66,3.66.93,5.62,0,0-3.78-.65-3.87-4,0,0-2.57.93-2.66,6.73,0,0-7.9-1.44-5.54-9.73C235.29,158.37,254.86,150.07,255.89,168.25Z" style="fill:#FF81AE"></path><path d="M255.89,168.25s-5.89,3-12.11.8c0,0-1.66,3.66.93,5.62,0,0-3.78-.65-3.87-4,0,0-2.57.93-2.66,6.73,0,0-7.9-1.44-5.54-9.73C235.29,158.37,254.86,150.07,255.89,168.25Z" style="opacity:0.5"></path><path d="M214.06,237.32a14.12,14.12,0,0,1-13.3,14.11l-1.61-28.21.79,0A14.11,14.11,0,0,1,214.06,237.32Z" style="fill:#FF81AE"></path><path d="M280.24,132.55a14.14,14.14,0,0,1-21.58-10.69L279,110.15Z" style="fill:#FF81AE"></path><path d="M225.1,161.39a2,2,0,1,1-2-2A2,2,0,0,1,225.1,161.39Z" style="fill:#fafafa"></path><path d="M200.51,169.68a2,2,0,1,1-2-2A2,2,0,0,1,200.51,169.68Z" style="fill:#fafafa"></path><circle cx="270.72" cy="154.9" r="2.01" style="fill:#fafafa"></circle><path d="M230,184.65a1,1,0,1,1-1-1A1,1,0,0,1,230,184.65Z" style="fill:#fafafa"></path><path d="M237.32,151.5a1,1,0,1,1-1-1A1,1,0,0,1,237.32,151.5Z" style="fill:#fafafa"></path><path d="M268.66,162.25a1,1,0,1,1-1-1A1,1,0,0,1,268.66,162.25Z" style="fill:#fafafa"></path><path d="M217.48,171.22a1,1,0,1,1-1-1A1,1,0,0,1,217.48,171.22Z" style="fill:#fafafa"></path><path d="M209.17,161.24a1,1,0,1,1-1-1A1,1,0,0,1,209.17,161.24Z" style="fill:#fafafa"></path><path d="M202.5,179.44a1,1,0,1,1-1-1A1,1,0,0,1,202.5,179.44Z" style="fill:#fafafa"></path><path d="M223.87,198a1.78,1.78,0,0,1-.31,1.13c-.71.93-2.18.22-3.1-.51-1.88-1.48-4.31-2.94-6.51-2s-2.87,3.92-4.53,5.77a2.77,2.77,0,0,1-1.26.86c-1.75.43-3-1.94-4.74-2.27s-3.28,1.67-4.44,3.21a11.39,11.39,0,0,1-.86,1l-.91-16a5.89,5.89,0,0,1,3.1.57c1.52.8,2.59,2.32,4.18,3,3.19,1.33,6.53-1.33,9.92-2a8.33,8.33,0,0,1,6.5,1.36A7.29,7.29,0,0,1,223.87,198Z" style="fill:#FF81AE"></path><path d="M223.87,198a1.78,1.78,0,0,1-.31,1.13c-.71.93-2.18.22-3.1-.51-1.88-1.48-4.31-2.94-6.51-2s-2.87,3.92-4.53,5.77a2.77,2.77,0,0,1-1.26.86c-1.75.43-3-1.94-4.74-2.27s-3.28,1.67-4.44,3.21a11.39,11.39,0,0,1-.86,1l-.91-16a5.89,5.89,0,0,1,3.1.57c1.52.8,2.59,2.32,4.18,3,3.19,1.33,6.53-1.33,9.92-2a8.33,8.33,0,0,1,6.5,1.36A7.29,7.29,0,0,1,223.87,198Z" style="opacity:0.2"></path></g><g id="freepik--Brushes--inject-125"><path d="M214.52,387.4l-27.34-.28,2.87,25h0c.16,1.47,1.2,2.91,3.14,4a16.9,16.9,0,0,0,15.3,0c1.95-1.12,3-2.56,3.14-4h0Z" style="fill:#37474f"></path><path d="M210.52,392.7c-5.34,3.09-14,3.09-19.34,0s-5.34-8.08,0-11.16,14-3.08,19.34,0S215.86,389.62,210.52,392.7Z" style="fill:#455a64"></path><path d="M208.5,391.54a16.9,16.9,0,0,1-15.3,0c-4.23-2.44-4.23-6.39,0-8.84a16.87,16.87,0,0,1,15.3,0C212.73,385.15,212.73,389.1,208.5,391.54Z" style="fill:#263238"></path><path d="M208.51,391.54a4.54,4.54,0,0,1-.62.32,14.48,14.48,0,0,1-5.14,1.4c-.3,0-.62.06-.92.08a18.75,18.75,0,0,1-2.25,0c-.46,0-.9-.08-1.34-.14A14.44,14.44,0,0,1,194,392c-.27-.13-.54-.26-.79-.41-3.5-2-4.1-5.08-1.8-7.46a8.5,8.5,0,0,1,1.8-1.37,11.89,11.89,0,0,1,2.78-1.16,15,15,0,0,1,1.95-.43,18,18,0,0,1,5.43-.07,15,15,0,0,1,1.65.31,13.06,13.06,0,0,1,3.51,1.35,7,7,0,0,1,1,.66C212.7,385.8,212.38,389.31,208.51,391.54Z" style="fill:#263238"></path><path d="M191.23,368a5.88,5.88,0,0,0,.3-5.87c-1.67-3-.58-5-.58-5s-5,.29-5.36,5.29,2.49,6.41,2.49,6.41Z" style="fill:#FF81AE"></path><path d="M191.23,368a5.88,5.88,0,0,0,.3-5.87c-1.67-3-.58-5-.58-5s-5,.29-5.36,5.29,2.49,6.41,2.49,6.41Z" style="fill:#fff;opacity:0.4"></path><path d="M198.24,393.18A14.44,14.44,0,0,1,194,392c-.42-1.14-.85-2.37-1.28-3.67s-.91-2.83-1.31-4.2c-1.24-4.34-2.08-8.28-2.61-11.07-.08-.47-.17-.92-.24-1.32s-.16-.85-.21-1.2-.07-.49-.11-.69l-.14-.93c.81-1.78,3.14-.87,3.14-.87s.32.74,1.29,3.46c.64,1.75,1.55,4.33,2.82,8.06.23.65.44,1.33.64,2A85.33,85.33,0,0,1,198.24,393.18Z" style="fill:#FF81AE"></path><path d="M198.24,393.18A14.44,14.44,0,0,1,194,392c-.42-1.14-.85-2.37-1.28-3.67s-.91-2.83-1.31-4.2c-1.24-4.34-2.08-8.28-2.61-11.07-.08-.47-.17-.92-.24-1.32s-.16-.85-.21-1.2-.07-.49-.11-.69l-.14-.93c.81-1.78,3.14-.87,3.14-.87s.32.74,1.29,3.46c.64,1.75,1.55,4.33,2.82,8.06.23.65.44,1.33.64,2A85.33,85.33,0,0,1,198.24,393.18Z" style="opacity:0.5"></path><path d="M192.52,371.46c-1-2.71-1.29-3.46-1.29-3.46s-2.34-.91-3.15.87c0,0,.22,1.59.7,4.14A2.57,2.57,0,0,1,192.52,371.46Z" style="fill:#FF81AE"></path><path d="M192.52,371.46c-1-2.71-1.29-3.46-1.29-3.46s-2.34-.91-3.15.87c0,0,.22,1.59.7,4.14A2.57,2.57,0,0,1,192.52,371.46Z" style="opacity:0.30000000000000004"></path><path d="M198,353.08l-4.79-6.77a2.36,2.36,0,0,1,.75-3.41l2.61-1.5a5.93,5.93,0,0,1,6,0l2.7,1.55a2.36,2.36,0,0,1,.85,3.25l-4,6.77Z" style="fill:#FF81AE"></path><path d="M198,353.08l-4.79-6.77a2.36,2.36,0,0,1,.75-3.41l2.61-1.5a5.93,5.93,0,0,1,6,0l2.7,1.55a2.36,2.36,0,0,1,.85,3.25l-4,6.77Z" style="fill:#fff;opacity:0.4"></path><path d="M203.35,381.05c-.39,4.59-1,9-1.52,12.29a18.75,18.75,0,0,1-2.25,0c-.55-3-1.18-7.13-1.66-12.2-.09-1-.18-2-.26-3.1a151.09,151.09,0,0,1-.09-19.71c0-.45.06-.87.09-1.25s0-.51.05-.75c.14-2,.28-3.23.28-3.23,1.52-1.92,4.08-.11,4.08-.11a.42.42,0,0,0,0,.07s0,0,0,.07,0,.19,0,.37.05.3.07.49,0,.28.05.44a.49.49,0,0,0,0,.12,2.65,2.65,0,0,0,.05.38c0,.13,0,.27,0,.42,0,.41.1.9.15,1.46,0,.24,0,.5.07.77.23,2.31.54,5.72,1,10.62A79.59,79.59,0,0,1,203.35,381.05Z" style="fill:#FF81AE"></path><path d="M203.35,381.05c-.39,4.59-1,9-1.52,12.29a18.75,18.75,0,0,1-2.25,0c-.55-3-1.18-7.13-1.66-12.2-.09-1-.18-2-.26-3.1a151.09,151.09,0,0,1-.09-19.71c0-.45.06-.87.09-1.25s0-.51.05-.75c.14-2,.28-3.23.28-3.23,1.52-1.92,4.08-.11,4.08-.11a.42.42,0,0,0,0,.07s0,0,0,.07,0,.19,0,.37.05.3.07.49,0,.28.05.44a.49.49,0,0,0,0,.12,2.65,2.65,0,0,0,.05.38c0,.13,0,.27,0,.42,0,.41.1.9.15,1.46,0,.24,0,.5.07.77.23,2.31.54,5.72,1,10.62A79.59,79.59,0,0,1,203.35,381.05Z" style="opacity:0.5"></path><path d="M202.58,357.57c-.36-3.59-.51-4.6-.51-4.6s-2.56-1.81-4.08.11c0,0-.22,2-.42,5.23A3.2,3.2,0,0,1,202.58,357.57Z" style="fill:#FF81AE"></path><path d="M202.58,357.57c-.36-3.59-.51-4.6-.51-4.6s-2.56-1.81-4.08.11c0,0-.22,2-.42,5.23A3.2,3.2,0,0,1,202.58,357.57Z" style="opacity:0.30000000000000004"></path><path d="M210.58,377.39a1.73,1.73,0,0,1-.05.45l-.39,2.09-.65,3.44-1.6,8.49a14.48,14.48,0,0,1-5.14,1.4l2.25-11.9.18-1,0-.08h0l.62-3.32a2.4,2.4,0,0,1,4.75.44Z" style="fill:#FF81AE"></path><path d="M210.58,377.39a1.73,1.73,0,0,1-.05.45l-.39,2.09-.65,3.44-1.6,8.49a14.48,14.48,0,0,1-5.14,1.4l2.25-11.9.18-1,0-.08h0l.62-3.32a2.4,2.4,0,0,1,4.75.44Z" style="opacity:0.5"></path><path d="M204.27,377.53a2.82,2.82,0,0,0,0,1,2.7,2.7,0,0,0,.08.39c0,.13.08.25.13.38h0a3.54,3.54,0,0,0,.19.33,1.9,1.9,0,0,0,.22.33c.08.1.18.2.26.29l.3.26.33.21-.17-.08-3.06-1.78a3,3,0,0,1-1.56-3.2l.53-3.18.22-1.38.34-2,3.93-2.27,9.86-5.69-.69,4.19L205.36,371l-.33,2-.22,1.37Z" style="fill:#FF81AE"></path><path d="M204.27,377.53a2.82,2.82,0,0,0,0,1,2.7,2.7,0,0,0,.08.39c0,.13.08.25.13.38h0a3.54,3.54,0,0,0,.19.33,1.9,1.9,0,0,0,.22.33c.08.1.18.2.26.29l.3.26.33.21-.17-.08-3.06-1.78a3,3,0,0,1-1.56-3.2l.53-3.18.22-1.38.34-2,3.93-2.27,9.86-5.69-.69,4.19L205.36,371l-.33,2-.22,1.37Z" style="opacity:0.30000000000000004"></path><polygon points="220.7 352.92 206.91 360.89 203.62 358.99 217.41 351.02 220.7 352.92" style="fill:#FF81AE"></polygon><polygon points="220.7 352.92 206.91 360.89 203.62 358.99 217.41 351.02 220.7 352.92" style="fill:#fff;opacity:0.5"></polygon><polygon points="206.91 360.89 205.35 370.96 202.06 369.06 203.62 358.99 206.91 360.89" style="fill:#FF81AE"></polygon><polygon points="206.91 360.89 205.35 370.96 202.06 369.06 203.62 358.99 206.91 360.89" style="fill:#fff;opacity:0.4"></polygon><polygon points="219.15 362.99 205.35 370.96 206.91 360.89 220.7 352.92 219.15 362.99" style="fill:#FF81AE"></polygon><polygon points="219.15 362.99 205.35 370.96 206.91 360.89 220.7 352.92 219.15 362.99" style="fill:#fff;opacity:0.7000000000000001"></polygon><path d="M213.67,377.89l-4.85,2.8a3.07,3.07,0,0,1-4.56-3.16l1.09-6.57,13.8-8-1.52,9.18A8.15,8.15,0,0,1,213.67,377.89Z" style="fill:#FF81AE"></path><polygon points="218.76 364.89 218.53 366.35 204.81 374.29 204.74 374.32 201.51 372.45 201.73 371.07 204.95 372.97 205.03 372.92 218.76 364.89" style="fill:#FF81AE"></polygon><polygon points="218.76 364.89 218.53 366.35 204.81 374.29 204.74 374.32 201.51 372.45 201.73 371.07 204.95 372.97 205.03 372.92 218.76 364.89" style="fill:#fff;opacity:0.7000000000000001"></polygon></g><g id="freepik--Character--inject-125"><path d="M332.45,411.82h0a2.2,2.2,0,0,1-2.21-2.2V319a2.21,2.21,0,0,1,2.21-2.21h0a2.21,2.21,0,0,1,2.2,2.21v90.61A2.2,2.2,0,0,1,332.45,411.82Z" style="fill:#263238"></path><path d="M360.52,396.71h0a2.19,2.19,0,0,1-2.2-2.2V303.9a2.2,2.2,0,0,1,2.2-2.21h0a2.2,2.2,0,0,1,2.2,2.21v90.61A2.19,2.19,0,0,1,360.52,396.71Z" style="fill:#263238"></path><path d="M304.42,396.71h0a2.2,2.2,0,0,1-2.21-2.2V303.9a2.21,2.21,0,0,1,2.21-2.21h0a2.21,2.21,0,0,1,2.2,2.21v90.61A2.2,2.2,0,0,1,304.42,396.71Z" style="fill:#263238"></path><path d="M364.35,303.21c0,4.72-3.11,9.43-9.34,13-12.46,7.2-32.65,7.2-45.11,0-6.23-3.59-9.34-8.3-9.34-13h0v5.24h0c0,4.71,3.11,9.43,9.34,13,12.46,7.19,32.65,7.19,45.11,0,6.23-3.59,9.34-8.31,9.34-13h.06v-5.24Z" style="fill:#263238"></path><ellipse cx="332.46" cy="299.67" rx="31.9" ry="18.42" style="fill:#FF81AE"></ellipse><ellipse cx="332.46" cy="299.67" rx="31.9" ry="18.42" style="opacity:0.30000000000000004"></ellipse><path d="M364.35,299.67c0,4.71-3.11,9.42-9.34,13-12.46,7.19-32.65,7.19-45.11,0-6.23-3.6-9.34-8.31-9.34-13h0v5.23h0c0,4.72,3.11,9.43,9.34,13,12.46,7.19,32.65,7.19,45.11,0,6.23-3.6,9.34-8.31,9.34-13h.06v-5.23Z" style="fill:#FF81AE"></path><path d="M364.35,299.67c0,4.71-3.11,9.42-9.34,13-12.46,7.19-32.65,7.19-45.11,0-6.23-3.6-9.34-8.31-9.34-13h0v5.23h0c0,4.72,3.11,9.43,9.34,13,12.46,7.19,32.65,7.19,45.11,0,6.23-3.6,9.34-8.31,9.34-13h.06v-5.23Z" style="opacity:0.5"></path><path d="M312.21,352.3l1.6,2.95a12,12,0,0,0,3.09,3.66h0s7.67,23,.47,29.15-7.83-1.53-7.83-1.53S309,370,306,365.09c-1.7-2.79-3.48-5.26-3.48-5.26Z" style="fill:#945959"></path><path d="M310.58,278l-33.83,27.7a10.69,10.69,0,0,0-2.45,13.66c2.48,4.26,6.52,10.51,13.07,19.57,6.33,8.73,15.15,20.92,15.15,20.92s8.46-1.87,9.69-7.53c0,0-4-9.29-5.42-12.56s-4.6-15.57-12.21-22.43l31.32-20.64-1.64-18.89Z" style="fill:#37474f"></path><path d="M316.9,358.91a9.13,9.13,0,0,0,.18,7.76c2,4.17,2.58,5.5,2.36,10.24s-1.55,9.81-3.7,9.92a55.93,55.93,0,0,1-6.2-.3s-4.48,12.55,1.39,11.86,14.13-7.26,13.31-14-2.34-9.51-1.8-13.85c0,0,1.61-1.51,4.6,2.6l.93,1.16a1,1,0,0,0,1.32.19h0a1,1,0,0,0,.26-1.35c-1.58-2.32-6.16-9-7.64-11.14A8.27,8.27,0,0,0,316.9,358.91Z" style="fill:#263238"></path><path d="M302.52,359.83a18.33,18.33,0,0,0,7.3-3.64c.68-2.06,1.21-3.92,1.63-5.65-1.24-2.85-3.64-8.42-4.66-10.8-1.25-2.91-3.94-13-9.88-20a17,17,0,0,0-2.41,7.33l-1.7,19.34Z" style="fill:#263238"></path><path d="M314.55,277.92c.64,4,2,10.41,4.4,13.37l-16,20.51,23-15.13-1.64-18.89Z" style="fill:#263238"></path><path d="M304.94,377.69l-.9,5.89a8.53,8.53,0,0,0,.17,3.41h0l-3.68,11.07-11.11,13.23-7.91-5.52a82.43,82.43,0,0,0,5.87-8.9c.83-1.5,1.54-2.95,2.12-4.21a25,25,0,0,0,2.15-8l.8-8.27Z" style="fill:#945959"></path><path d="M316.37,274.44s1.22,12.36,4.86,16.85l-20.89,26.77a17,17,0,0,0-3.55,9l-4.34,49.37s6.63,3.73,12.49,1.25c0,0,2.32-8.24,6.07-18.36s4.17-16,4.15-21.66-.12-6.41-.12-6.41,26.57-21,31.66-25.41,10-15.5,8.57-25.24Z" style="fill:#37474f"></path><path d="M304.21,387a11.71,11.71,0,0,0-4.79,7.71c-.39,2.46-.06,3.08-2.64,6.55s-6.82,10.11-10.21,7.6a54,54,0,0,1-4.61-3.68s-7.23,6-7.23,8.55,5.78,3.43,10.48,3.38,10-1.66,11.68-6,5.06-12.58,6-13.06,1.32,1.83,1.3,4.55c0,1.48,0,2.83,0,3.76a1.29,1.29,0,0,0,1.3,1.28h0a1.29,1.29,0,0,0,1.29-1.29V394.68a12.76,12.76,0,0,0-2.5-7.58Z" style="fill:#263238"></path><path d="M258.38,222s.78,3.36,8.21,5.42l5.91-8.33-6.32-3.77Z" style="fill:#FF81AE"></path><path d="M258.38,222s.78,3.36,8.21,5.42l5.91-8.33-6.32-3.77Z" style="fill:#fff;opacity:0.7000000000000001"></path><path d="M290.34,239,282,227.7l-8.68,5.79,6.6,12.34S285.62,246.39,290.34,239Z" style="fill:#945959"></path><path d="M322.27,219.89l-11.8,30.2s-11.82,12.85-16.87,12.85-10.5-11.19-10.5-11.19l11.43-6.86s11.13-14.17,14.57-19S316.73,219.59,322.27,219.89Z" style="fill:#FF81AE"></path><path d="M322.27,219.89l-11.8,30.2s-11.82,12.85-16.87,12.85-10.5-11.19-10.5-11.19l11.43-6.86s11.13-14.17,14.57-19S316.73,219.59,322.27,219.89Z" style="fill:#fff;opacity:0.7000000000000001"></path><path d="M283.1,251.75a15,15,0,0,0,11.43-6.86L290.34,239A21.46,21.46,0,0,1,280,245.83Z" style="fill:#FF81AE"></path><path d="M283.1,251.75a15,15,0,0,0,11.43-6.86L290.34,239A21.46,21.46,0,0,1,280,245.83Z" style="fill:#fff;opacity:0.5"></path><path d="M294.53,244.89s3.52,2.69,3.45,8.48c0,0,1.18-5.65-2.36-9.87Z" style="fill:#FF81AE"></path><path d="M294.53,244.89s3.52,2.69,3.45,8.48c0,0,1.18-5.65-2.36-9.87Z" style="fill:#fff;opacity:0.5"></path><path d="M247.81,229a5.86,5.86,0,0,0-5.7,1.4c-2.42,2.48-4.59,2-4.59,2s1.72,4.66,6.61,3.59,5.43-4.23,5.43-4.23Z" style="fill:#37474f"></path><path d="M247.81,229s-.19,2.5,1.75,2.76a119,119,0,0,0,17.25-10,113.18,113.18,0,0,0,11.38-9.09.52.52,0,0,0-.54-.86c-4.35,1.67-13.86,5.56-20,10C249.48,227.57,247.81,229,247.81,229Z" style="fill:#FF81AE"></path><path d="M247.81,229s-.19,2.5,1.75,2.76a119,119,0,0,0,17.25-10,113.18,113.18,0,0,0,11.38-9.09.52.52,0,0,0-.54-.86c-4.35,1.67-13.86,5.56-20,10C249.48,227.57,247.81,229,247.81,229Z" style="opacity:0.5"></path><path d="M250.75,226.71c-2.31,1.72-2.94,2.24-2.94,2.24s-.19,2.5,1.75,2.76c0,0,1.46-.67,3.76-1.87A2.57,2.57,0,0,1,250.75,226.71Z" style="fill:#FF81AE"></path><path d="M250.75,226.71c-2.31,1.72-2.94,2.24-2.94,2.24s-.19,2.5,1.75,2.76c0,0,1.46-.67,3.76-1.87A2.57,2.57,0,0,1,250.75,226.71Z" style="opacity:0.30000000000000004"></path><path d="M271.69,214.16s-.86-.86-3.66-1.48c-3.27-.71-4-.6-5.32,1.48a5.27,5.27,0,0,0-3.56,2.67s-2.48,0-3.32,6.27c-.23,1.68,1,1.65,1.74.28,0,0,.69,1.45,2.29-1.41,0,0,1.92,1.7,4.93-4.42Z" style="fill:#FF81AE"></path><path d="M271.69,214.16s-.86-.86-3.66-1.48c-3.27-.71-4-.6-5.32,1.48a5.27,5.27,0,0,0-3.56,2.67s-2.48,0-3.32,6.27c-.23,1.68,1,1.65,1.74.28,0,0,.69,1.45,2.29-1.41,0,0,1.92,1.7,4.93-4.42Z" style="fill:#fff;opacity:0.7000000000000001"></path><path d="M272.63,234s8.12-3,10.17-7.06c0,0-6.34-9.75-7.57-10.61s-10.22-1.84-10.4-.91,0,3.9,4.41,4.79l-2.65,7.17a18,18,0,0,1,4.21,3.43C272.55,232.9,272.63,234,272.63,234Z" style="fill:#FF81AE"></path><path d="M272.63,234s8.12-3,10.17-7.06c0,0-6.34-9.75-7.57-10.61s-10.22-1.84-10.4-.91,0,3.9,4.41,4.79l-2.65,7.17a18,18,0,0,1,4.21,3.43C272.55,232.9,272.63,234,272.63,234Z" style="fill:#fff;opacity:0.7000000000000001"></path><path d="M327.81,220.19l13.75,1.52,3.95,5.12s-12.15,31-12.15,51.45c0,0-10.61,1-17-3.84C316.37,274.44,313.25,234.67,327.81,220.19Z" style="fill:#FF81AE"></path><path d="M327.81,220.19l13.75,1.52,3.95,5.12s-12.15,31-12.15,51.45c0,0-10.61,1-17-3.84C316.37,274.44,313.25,234.67,327.81,220.19Z" style="opacity:0.5"></path><circle cx="326.51" cy="187.06" r="14.96" style="fill:#263238"></circle><circle cx="354.41" cy="208.59" r="8.35" transform="translate(69.98 505.59) rotate(-76.72)" style="fill:#263238"></circle><ellipse cx="346.77" cy="202.68" rx="8.83" ry="7.19" transform="translate(-41.75 304.57) rotate(-45)" style="fill:#FF81AE"></ellipse><path d="M348.13,180.36a6.25,6.25,0,0,0,1.46-4.86c-.24-3.24,2.82-.89,3.08,1s-1.65,4.63-3.42,5.24Z" style="fill:#263238"></path><path d="M349.26,181a6.2,6.2,0,0,0,4.71-1.85c2.41-2.19,2.45,1.67,1.14,3s-4.67,1.55-6.23.54Z" style="fill:#263238"></path><path d="M327.81,212.52v7.67s-8.8,10.63-.22,11.4,14-9.88,14-9.88v-17Z" style="fill:#945959"></path><path d="M341.41,201.83v.49c-3.06,12.08-11,14.72-13.6,15.33l-.09-18.7,13.29-.07Z" style="fill:#703838"></path><path d="M330.11,174.74c-5.07.42-15.63,4.13-15.79,17.51s1.89,23.59,8.83,24,22.43-5.84,23.15-23.2S335.06,174.34,330.11,174.74Z" style="fill:#945959"></path><polygon points="323.69 197.62 323.81 205.48 319.19 204.14 323.69 197.62" style="fill:#703838"></polygon><path d="M330.59,197.41a1.6,1.6,0,1,1-1.62-1.57A1.6,1.6,0,0,1,330.59,197.41Z" style="fill:#263238"></path><path d="M320.05,196.45a1.6,1.6,0,1,1-1.62-1.58A1.6,1.6,0,0,1,320.05,196.45Z" style="fill:#263238"></path><path d="M316.45,193.16l3.11-1.9s-1.22-1.23-2.41-.46A2.18,2.18,0,0,0,316.45,193.16Z" style="fill:#FF81AE"></path><path d="M322.78,208.22a49,49,0,0,0,4.73-2.6s1,2.57-1.11,3.64S322.78,208.22,322.78,208.22Z" style="fill:#703838"></path><path d="M316.45,193.16l3.11-1.9s-1.22-1.23-2.41-.46A2.18,2.18,0,0,0,316.45,193.16Z" style="fill:#263238"></path><path d="M337.43,195.4s-.84,7,4.17,7l1.22-6.25Z" style="fill:#263238"></path><path d="M337.8,197.44s-20.06-3.47-20.06-22.83c0-5.84,3.59-9.92,11.76-3.86s24.78,1.43,24.78,23.45a18.43,18.43,0,0,1-12.72,17.68V198.1Z" style="fill:#263238"></path><path d="M341.37,201.66a8.07,8.07,0,0,1,.71-3.56,3.77,3.77,0,0,1,3.3-2.53c3.78-.07,4.26,3.58,4.19,4.87-.17,3.41-3,7.06-8.09,7.15Z" style="fill:#945959"></path><path d="M341.56,221.71s-12,18.86-12,62.35c0,0,16.89,3.74,25.7-3.45l-5.69-19.16,3.4-11.16V223.52Z" style="fill:#FF81AE"></path><path d="M341.56,221.71s-12,18.86-12,62.35c0,0,16.89,3.74,25.7-3.45l-5.69-19.16,3.4-11.16V223.52Z" style="fill:#fff;opacity:0.5"></path><path d="M331.38,256.45l10.34-7.9a2.4,2.4,0,0,0,.81-2.68l-2.9-8.46L346,234.1a2.41,2.41,0,0,0,1.29-2.24l-.48-9.32-5.24-.83-.13.21C340.48,223.53,334.46,234.4,331.38,256.45Z" style="fill:#FF81AE"></path><path d="M331.38,256.45l10.34-7.9a2.4,2.4,0,0,0,.81-2.68l-2.9-8.46L346,234.1a2.41,2.41,0,0,0,1.29-2.24l-.48-9.32-5.24-.83-.13.21C340.48,223.53,334.46,234.4,331.38,256.45Z" style="fill:#fff;opacity:0.7000000000000001"></path><path d="M327.81,220.19l-5.54-.3S308.19,233.16,308.9,244c.29,4.29,3.4,9.35,3.4,9.35s2.11,4.31.36,13.54-2.66,11-2.66,11a16.59,16.59,0,0,0,8.9,3.21S314.31,237.41,327.81,220.19Z" style="fill:#FF81AE"></path><path d="M327.81,220.19l-5.54-.3S308.19,233.16,308.9,244c.29,4.29,3.4,9.35,3.4,9.35s2.11,4.31.36,13.54-2.66,11-2.66,11a16.59,16.59,0,0,0,8.9,3.21S314.31,237.41,327.81,220.19Z" style="fill:#fff;opacity:0.5"></path><path d="M325.23,220.05l-6.76,6.47a2.26,2.26,0,0,0-.57,2.4l1.63,4.53L314.19,240a2,2,0,0,0-.25,2.06l4.66,9.79c.9-11.72,3.35-24.18,9.21-31.66Z" style="fill:#FF81AE"></path><path d="M325.23,220.05l-6.76,6.47a2.26,2.26,0,0,0-.57,2.4l1.63,4.53L314.19,240a2,2,0,0,0-.25,2.06l4.66,9.79c.9-11.72,3.35-24.18,9.21-31.66Z" style="fill:#fff;opacity:0.7000000000000001"></path><path d="M353,223.52s-7.09,4.11-3.09,17.59c1.6,5.38,8.93,22.09,8.93,22.09l9.75,11.63,4.24-2.45A7.44,7.44,0,0,0,376,263.2l-12.3-30.91a14,14,0,0,0-9.8-8.59C353.6,223.63,353.29,223.57,353,223.52Z" style="fill:#FF81AE"></path><path d="M353,223.52s-7.09,4.11-3.09,17.59c1.6,5.38,8.93,22.09,8.93,22.09l9.75,11.63,4.24-2.45A7.44,7.44,0,0,0,376,263.2l-12.3-30.91a14,14,0,0,0-9.8-8.59C353.6,223.63,353.29,223.57,353,223.52Z" style="fill:#fff;opacity:0.7000000000000001"></path><path d="M354,267.43l-11.4,8.42,7.16,9.22,14.35-7.65S361.63,267.34,354,267.43Z" style="fill:#945959"></path><path d="M358.82,263.2s8.45,0,11.46,10.64l-6.19,3.58a20.43,20.43,0,0,0-10.11-10Z" style="fill:#FF81AE"></path><path d="M358.82,263.2s8.45,0,11.46,10.64l-6.19,3.58a20.43,20.43,0,0,0-10.11-10Z" style="fill:#fff;opacity:0.5"></path><path d="M358.82,263.2s4.67-1.91,8.76.6c0,0-2.11-3.32-9.52-2.35Z" style="fill:#FF81AE"></path><path d="M358.82,263.2s4.67-1.91,8.76.6c0,0-2.11-3.32-9.52-2.35Z" style="fill:#fff;opacity:0.5"></path><path d="M345.31,267.64c-4.94-1.1-12.4-.47-9.23,9.88,0,0-28.78-9-28.78,2.73s36,22.68,53.09,13.23C374.56,285.65,368.13,272.7,345.31,267.64Z" style="fill:#455a64"></path><path d="M335.94,279.92l-3.8-1.55s-6.17,2.41-7.55-1.16c-.53-1.37,9-3.44,9-3.44l8,3.06a1.24,1.24,0,0,1,.37,2.08C340.92,279.76,339.16,280.54,335.94,279.92Z" style="fill:#FF81AE"></path><path d="M335.94,279.92l-3.8-1.55s-6.17,2.41-7.55-1.16c-.53-1.37,9-3.44,9-3.44l8,3.06a1.24,1.24,0,0,1,.37,2.08C340.92,279.76,339.16,280.54,335.94,279.92Z" style="fill:#fff;opacity:0.7000000000000001"></path><path d="M323,283.85a6.84,6.84,0,0,1-6.17,0c-1.7-1-1.7-2.58,0-3.56a6.84,6.84,0,0,1,6.17,0C324.74,281.27,324.74,282.87,323,283.85Z" style="fill:#FF81AE"></path><path d="M323,283.85a6.84,6.84,0,0,1-6.17,0c-1.7-1-1.7-2.58,0-3.56a6.84,6.84,0,0,1,6.17,0C324.74,281.27,324.74,282.87,323,283.85Z" style="fill:#fff;opacity:0.2"></path><path d="M335.33,290.67a6.82,6.82,0,0,1-6.16,0c-1.7-1-1.7-2.58,0-3.56a6.82,6.82,0,0,1,6.16,0C337,288.09,337,289.69,335.33,290.67Z" style="fill:#FF81AE"></path><path d="M353.17,277.13a6.82,6.82,0,0,1-6.16,0c-1.7-1-1.7-2.57,0-3.55a6.76,6.76,0,0,1,6.16,0C354.88,274.56,354.88,276.15,353.17,277.13Z" style="fill:#FF81AE"></path><path d="M353.17,277.13a6.82,6.82,0,0,1-6.16,0c-1.7-1-1.7-2.57,0-3.55a6.76,6.76,0,0,1,6.16,0C354.88,274.56,354.88,276.15,353.17,277.13Z" style="opacity:0.7000000000000001"></path><path d="M362,285.1a6.76,6.76,0,0,1-6.16,0c-1.7-1-1.7-2.57,0-3.55a6.76,6.76,0,0,1,6.16,0C363.67,282.53,363.67,284.12,362,285.1Z" style="fill:#FF81AE"></path><path d="M362,285.1a6.76,6.76,0,0,1-6.16,0c-1.7-1-1.7-2.57,0-3.55a6.76,6.76,0,0,1,6.16,0C363.67,282.53,363.67,284.12,362,285.1Z" style="opacity:0.5"></path><path d="M351.83,292a6.82,6.82,0,0,1-6.16,0c-1.7-1-1.7-2.57,0-3.56a6.82,6.82,0,0,1,6.16,0C353.53,289.38,353.53,291,351.83,292Z" style="fill:#FF81AE"></path><path d="M351.83,292a6.82,6.82,0,0,1-6.16,0c-1.7-1-1.7-2.57,0-3.56a6.82,6.82,0,0,1,6.16,0C353.53,289.38,353.53,291,351.83,292Z" style="opacity:0.2"></path></g><g id="freepik--Lamp--inject-125"><polygon points="107.87 308.13 140.52 326.99 140.52 329.46 107.87 310.61 107.87 308.13" style="fill:#263238"></polygon><polygon points="115.66 303.64 148.31 322.49 140.52 326.99 107.87 308.13 115.66 303.64" style="fill:#37474f"></polygon><polygon points="173.17 308.13 140.52 326.99 140.52 329.46 173.17 310.61 173.17 308.13" style="fill:#263238"></polygon><polygon points="165.38 303.64 132.73 322.49 140.52 326.99 173.17 308.13 165.38 303.64" style="fill:#37474f"></polygon><polygon points="147.62 114.59 138.46 119.88 143.85 123.65 153.01 118.37 147.62 114.59" style="fill:#37474f"></polygon><path d="M150,323.61V208H132.39V323.61c0,1.31.86,2.61,2.58,3.61a13.81,13.81,0,0,0,12.49,0C149.18,326.22,150,324.92,150,323.61Z" style="fill:#37474f"></path><ellipse cx="141.21" cy="207.97" rx="8.83" ry="5.1" style="fill:#455a64"></ellipse><path d="M141.16,209.19a2.7,2.7,0,0,1-2.7-2.7V63a18.91,18.91,0,0,1,9.41-16.32L171,33.26a16.27,16.27,0,0,1,16.6.18l12.49,7.43a2.7,2.7,0,1,1-2.76,4.63L184.8,38.06a10.89,10.89,0,0,0-11.12-.13L150.57,51.29A13.53,13.53,0,0,0,143.85,63V206.49A2.7,2.7,0,0,1,141.16,209.19Z" style="fill:#263238"></path><path d="M175.68,56.48h0a3.31,3.31,0,0,1,0-5.72l36.2-21a9.47,9.47,0,0,1,9.81.18h0Z" style="fill:#263238"></path><polygon points="175.67 69.76 164.11 82.45 232.59 41.45 244.7 29.89 175.67 69.76" style="fill:#ebebeb"></polygon><path d="M161.46,84.63l14-15.3,72.65-42L232.84,41.88ZM176,70.16l-9.22,10.12,65.51-39.23,9.06-8.64Z" style="fill:#fafafa"></path><path d="M241.07,32.61,232.26,41,167,80.11l9-9.92,65.06-37.58m3.63-2.72-69,39.87-11.56,12.7,68.48-41L244.7,29.89Z" style="fill:#37474f"></path><polygon points="175.67 69.76 164.17 63.11 233.2 23.26 244.7 29.89 175.67 69.76" style="fill:#455a64"></polygon><polygon points="164.17 63.11 164.17 63.11 164.11 82.45 175.67 69.76 164.17 63.11" style="fill:#263238"></polygon><polygon points="153.01 118.37 143.85 123.65 143.85 185.07 153.01 179.78 153.01 118.37" style="fill:#455a64"></polygon><path d="M151,138.22a5.64,5.64,0,0,1-2.57,4.44c-1.42.82-2.57.16-2.57-1.48a5.67,5.67,0,0,1,2.57-4.44C149.85,135.92,151,136.58,151,138.22Z" style="fill:#263238"></path><path d="M151,150.24a5.67,5.67,0,0,1-2.57,4.44c-1.42.82-2.57.16-2.57-1.48a5.64,5.64,0,0,1,2.57-4.44C149.85,147.94,151,148.6,151,150.24Z" style="fill:#263238"></path><path d="M151,162.26a5.67,5.67,0,0,1-2.57,4.44c-1.42.82-2.57.15-2.57-1.48a5.68,5.68,0,0,1,2.57-4.45C149.85,160,151,160.62,151,162.26Z" style="fill:#263238"></path><polygon points="170.88 347.14 138.23 328.29 146.03 323.79 178.68 342.64 170.88 347.14" style="fill:#263238"></polygon><polygon points="170.88 347.14 170.88 344.66 178.68 340.16 178.68 342.64 170.88 347.14" style="fill:#263238"></polygon><polygon points="170.88 344.66 138.23 325.81 146.03 321.31 178.68 340.16 170.88 344.66" style="fill:#37474f"></polygon><polygon points="109.81 347.14 142.46 328.29 134.67 323.79 102.02 342.64 109.81 347.14" style="fill:#263238"></polygon><polygon points="109.81 347.14 109.81 344.66 102.02 340.16 102.02 342.64 109.81 347.14" style="fill:#263238"></polygon><polygon points="109.81 344.66 142.46 325.81 134.67 321.31 102.02 340.16 109.81 344.66" style="fill:#37474f"></polygon></g><g id="freepik--Shelf--inject-125"><polygon points="150.84 375.81 147.64 377.65 147.64 271.53 150.84 269.68 150.84 375.81" style="fill:#FF81AE"></polygon><polygon points="150.84 375.81 147.64 377.65 147.64 271.53 150.84 269.68 150.84 375.81" style="fill:#fff;opacity:0.7000000000000001"></polygon><polygon points="144.44 375.81 147.64 377.65 147.64 271.53 144.44 269.68 144.44 375.81" style="fill:#FF81AE"></polygon><polygon points="144.44 375.81 147.64 377.65 147.64 271.53 144.44 269.68 144.44 375.81" style="fill:#fff;opacity:0.4"></polygon><polygon points="68.58 386.52 65.38 388.37 65.38 282.25 68.58 280.4 68.58 386.52" style="fill:#FF81AE"></polygon><polygon points="68.58 386.52 65.38 388.37 65.38 282.25 68.58 280.4 68.58 386.52" style="fill:#fff;opacity:0.7000000000000001"></polygon><polygon points="62.18 386.52 65.38 388.37 65.38 282.25 62.18 280.4 62.18 386.52" style="fill:#FF81AE"></polygon><polygon points="62.18 386.52 65.38 388.37 65.38 282.25 62.18 280.4 62.18 386.52" style="fill:#fff;opacity:0.4"></polygon><polygon points="118.99 357.45 115.79 359.29 115.79 253.17 118.99 251.32 118.99 357.45" style="fill:#FF81AE"></polygon><polygon points="118.99 357.45 115.79 359.29 115.79 253.17 118.99 251.32 118.99 357.45" style="fill:#fff;opacity:0.7000000000000001"></polygon><polygon points="112.59 357.45 115.79 359.29 115.79 253.17 112.59 251.32 112.59 357.45" style="fill:#FF81AE"></polygon><polygon points="112.59 357.45 115.79 359.29 115.79 253.17 112.59 251.32 112.59 357.45" style="fill:#fff;opacity:0.4"></polygon><polygon points="97.23 342.19 97.23 346.81 62.18 326.58 62.18 321.95 97.23 342.19" style="fill:#FF81AE"></polygon><polygon points="97.23 342.19 97.23 346.81 62.18 326.58 62.18 321.95 97.23 342.19" style="fill:#fff;opacity:0.4"></polygon><polygon points="150.84 315.86 97.23 346.81 97.23 342.19 150.84 311.24 150.84 315.86" style="fill:#FF81AE"></polygon><polygon points="150.84 315.86 97.23 346.81 97.23 342.19 150.84 311.24 150.84 315.86" style="fill:#fff;opacity:0.7000000000000001"></polygon><polygon points="150.84 311.24 97.23 342.19 62.18 321.95 115.79 291 150.84 311.24" style="fill:#FF81AE"></polygon><polygon points="150.84 311.24 97.23 342.19 62.18 321.95 115.79 291 150.84 311.24" style="fill:#fff;opacity:0.5"></polygon><polygon points="99.17 332.5 73.41 322.46 87.01 314.79 104.44 322.06 99.17 332.5" style="fill:#FF81AE"></polygon><polygon points="99.17 332.5 73.41 322.46 87.01 314.79 104.44 322.06 99.17 332.5" style="opacity:0.30000000000000004"></polygon><path d="M105.92,324.87a9.17,9.17,0,0,1-4.15,7.19c-2.3,1.32-4.16.25-4.16-2.4a9.19,9.19,0,0,1,4.16-7.19C104.06,321.15,105.92,322.22,105.92,324.87Z" style="fill:#FF81AE"></path><polygon points="88.53 314.71 73.86 323.18 72.22 322.24 86.89 313.77 88.53 314.71" style="fill:#FF81AE"></polygon><polygon points="88.53 314.71 73.86 323.18 72.22 322.24 86.89 313.77 88.53 314.71" style="opacity:0.5"></polygon><path d="M103.82,324.87a1.36,1.36,0,0,0-1.41.13,4.34,4.34,0,0,0-2,3.4,1.37,1.37,0,0,0,.58,1.28h0l4.57,1.7,2.32-4.11Z" style="fill:#e0e0e0"></path><path d="M108.36,328.3a3.71,3.71,0,0,1-1.68,2.91c-.93.54-1.68.1-1.68-1a3.68,3.68,0,0,1,1.68-2.9C107.6,326.8,108.36,327.23,108.36,328.3Z" style="fill:#ebebeb"></path><polygon points="114.8 323.35 89.04 313.31 102.64 305.63 120.07 312.9 114.8 323.35" style="fill:#FF81AE"></polygon><polygon points="114.8 323.35 89.04 313.31 102.64 305.63 120.07 312.9 114.8 323.35" style="opacity:0.4"></polygon><path d="M121.54,315.71a9.17,9.17,0,0,1-4.15,7.19c-2.29,1.33-4.15.25-4.15-2.4a9.2,9.2,0,0,1,4.15-7.19C119.68,312,121.54,313.06,121.54,315.71Z" style="fill:#FF81AE"></path><path d="M121.54,315.71a9.17,9.17,0,0,1-4.15,7.19c-2.29,1.33-4.15.25-4.15-2.4a9.2,9.2,0,0,1,4.15-7.19C119.68,312,121.54,313.06,121.54,315.71Z" style="opacity:0.2"></path><polygon points="104.15 305.55 89.48 314.02 87.85 313.08 102.52 304.61 104.15 305.55" style="fill:#FF81AE"></polygon><polygon points="104.15 305.55 89.48 314.02 87.85 313.08 102.52 304.61 104.15 305.55" style="opacity:0.6000000000000001"></polygon><path d="M119.44,315.71a1.37,1.37,0,0,0-1.4.13,4.32,4.32,0,0,0-2,3.4,1.37,1.37,0,0,0,.59,1.28h0l4.56,1.7,2.33-4.11Z" style="fill:#e0e0e0"></path><path d="M124,319.15a3.68,3.68,0,0,1-1.68,2.9c-.93.54-1.68.1-1.68-1a3.68,3.68,0,0,1,1.68-2.9C123.23,317.64,124,318.08,124,319.15Z" style="fill:#ebebeb"></path><polygon points="130.42 314.19 104.66 304.15 118.26 296.47 135.69 303.74 130.42 314.19" style="fill:#FF81AE"></polygon><polygon points="130.42 314.19 104.66 304.15 118.26 296.47 135.69 303.74 130.42 314.19" style="opacity:0.6000000000000001"></polygon><path d="M137.17,306.55a9.16,9.16,0,0,1-4.16,7.19c-2.29,1.33-4.15.25-4.15-2.39a9.21,9.21,0,0,1,4.15-7.2C135.31,302.83,137.17,303.9,137.17,306.55Z" style="fill:#FF81AE"></path><path d="M137.17,306.55a9.16,9.16,0,0,1-4.16,7.19c-2.29,1.33-4.15.25-4.15-2.39a9.21,9.21,0,0,1,4.15-7.2C135.31,302.83,137.17,303.9,137.17,306.55Z" style="opacity:0.4"></path><polygon points="119.77 296.39 105.1 304.86 103.47 303.92 118.14 295.45 119.77 296.39" style="fill:#FF81AE"></polygon><polygon points="119.77 296.39 105.1 304.86 103.47 303.92 118.14 295.45 119.77 296.39" style="opacity:0.8"></polygon><path d="M135.07,306.55a1.39,1.39,0,0,0-1.41.13,4.32,4.32,0,0,0-2,3.4,1.37,1.37,0,0,0,.59,1.28h0l4.57,1.7,2.32-4.11Z" style="fill:#e0e0e0"></path><path d="M139.6,310a3.68,3.68,0,0,1-1.68,2.9c-.92.54-1.67.1-1.67-1a3.7,3.7,0,0,1,1.67-2.9C138.85,308.48,139.6,308.92,139.6,310Z" style="fill:#ebebeb"></path><polygon points="100.43 405.65 97.23 407.5 97.23 301.38 100.43 299.53 100.43 405.65" style="fill:#FF81AE"></polygon><polygon points="100.43 405.65 97.23 407.5 97.23 301.38 100.43 299.53 100.43 405.65" style="fill:#fff;opacity:0.7000000000000001"></polygon><polygon points="94.03 405.65 97.23 407.5 97.23 301.38 94.03 299.53 94.03 405.65" style="fill:#FF81AE"></polygon><polygon points="94.03 405.65 97.23 407.5 97.23 301.38 94.03 299.53 94.03 405.65" style="fill:#fff;opacity:0.4"></polygon><polygon points="68.58 321.95 65.38 323.8 65.38 280.58 68.58 278.74 68.58 321.95" style="fill:#FF81AE"></polygon><polygon points="68.58 321.95 65.38 323.8 65.38 280.58 68.58 278.74 68.58 321.95" style="fill:#fff;opacity:0.7000000000000001"></polygon><polygon points="62.18 321.95 65.38 323.8 65.38 280.58 62.18 278.74 62.18 321.95" style="fill:#FF81AE"></polygon><polygon points="62.18 321.95 65.38 323.8 65.38 280.58 62.18 278.74 62.18 321.95" style="fill:#fff;opacity:0.4"></polygon><polygon points="150.84 311.24 147.64 313.09 147.64 269.87 150.84 268.02 150.84 311.24" style="fill:#FF81AE"></polygon><polygon points="150.84 311.24 147.64 313.09 147.64 269.87 150.84 268.02 150.84 311.24" style="fill:#fff;opacity:0.7000000000000001"></polygon><polygon points="144.44 311.24 147.64 313.09 147.64 269.87 144.44 268.02 144.44 311.24" style="fill:#FF81AE"></polygon><polygon points="144.44 311.24 147.64 313.09 147.64 269.87 144.44 268.02 144.44 311.24" style="fill:#fff;opacity:0.4"></polygon><polygon points="118.99 292.88 115.79 294.73 115.79 251.51 118.99 249.66 118.99 292.88" style="fill:#FF81AE"></polygon><polygon points="118.99 292.88 115.79 294.73 115.79 251.51 118.99 249.66 118.99 292.88" style="fill:#fff;opacity:0.7000000000000001"></polygon><polygon points="112.59 292.88 115.79 294.73 115.79 251.51 112.59 249.66 112.59 292.88" style="fill:#FF81AE"></polygon><polygon points="112.59 292.88 115.79 294.73 115.79 251.51 112.59 249.66 112.59 292.88" style="fill:#fff;opacity:0.4"></polygon><polygon points="97.23 297.45 97.23 302.07 62.18 281.84 62.18 277.21 97.23 297.45" style="fill:#FF81AE"></polygon><polygon points="97.23 297.45 97.23 302.07 62.18 281.84 62.18 277.21 97.23 297.45" style="fill:#fff;opacity:0.4"></polygon><polygon points="150.84 271.12 97.23 302.07 97.23 297.45 150.84 266.5 150.84 271.12" style="fill:#FF81AE"></polygon><polygon points="150.84 271.12 97.23 302.07 97.23 297.45 150.84 266.5 150.84 271.12" style="fill:#fff;opacity:0.7000000000000001"></polygon><polygon points="150.84 266.5 97.23 297.45 62.18 277.21 115.79 246.26 150.84 266.5" style="fill:#FF81AE"></polygon><polygon points="150.84 266.5 97.23 297.45 62.18 277.21 115.79 246.26 150.84 266.5" style="fill:#fff;opacity:0.5"></polygon><polygon points="100.66 288.69 72.68 277.79 87.45 269.45 106.39 277.35 100.66 288.69" style="fill:#37474f"></polygon><path d="M108,280.4a10,10,0,0,1-4.51,7.81c-2.49,1.44-4.51.27-4.51-2.6a10,10,0,0,1,4.51-7.82C106,276.36,108,277.52,108,280.4Z" style="fill:#455a64"></path><polygon points="89.09 269.36 73.16 278.56 71.38 277.54 87.32 268.34 89.09 269.36" style="fill:#263238"></polygon><path d="M105.71,280.4a1.49,1.49,0,0,0-1.53.14,4.71,4.71,0,0,0-2.14,3.7,1.48,1.48,0,0,0,.64,1.38h0l5,1.84,2.53-4.47Z" style="fill:#e0e0e0"></path><path d="M110.64,284.13a4,4,0,0,1-1.83,3.16c-1,.58-1.82.11-1.82-1.05a4,4,0,0,1,1.82-3.16C109.82,282.5,110.64,283,110.64,284.13Z" style="fill:#ebebeb"></path><path d="M98.13,233.93v27.39c0,1.3.86,2.61,2.59,3.6a13.73,13.73,0,0,0,12.48,0c1.73-1,2.59-2.3,2.59-3.6V233.93Z" style="fill:#FF81AE"></path><path d="M98.13,233.93v27.39c0,1.3.86,2.61,2.59,3.6a13.73,13.73,0,0,0,12.48,0c1.73-1,2.59-2.3,2.59-3.6V233.93Z" style="opacity:0.2"></path><path d="M113.2,230.32c3.45,2,3.45,5.22,0,7.21a13.79,13.79,0,0,1-12.48,0c-3.45-2-3.45-5.22,0-7.21A13.79,13.79,0,0,1,113.2,230.32Z" style="fill:#FF81AE"></path><path d="M101.27,221.6v10.77a2.82,2.82,0,0,0,1.66,2.32,8.92,8.92,0,0,0,8,0,2.81,2.81,0,0,0,1.67-2.32V221.6Z" style="fill:#FF81AE"></path><path d="M101.27,221.6v10.77a2.82,2.82,0,0,0,1.66,2.32,8.92,8.92,0,0,0,8,0,2.81,2.81,0,0,0,1.67-2.32V221.6Z" style="fill:#fff;opacity:0.5"></path><path d="M111,219.27c2.23,1.29,2.23,3.37,0,4.65a8.86,8.86,0,0,1-8,0c-2.22-1.28-2.22-3.36,0-4.65A8.92,8.92,0,0,1,111,219.27Z" style="fill:#FF81AE"></path><path d="M111,219.27c2.23,1.29,2.23,3.37,0,4.65a8.86,8.86,0,0,1-8,0c-2.22-1.28-2.22-3.36,0-4.65A8.92,8.92,0,0,1,111,219.27Z" style="fill:#fff;opacity:0.7000000000000001"></path><path d="M110.28,250.73v26.4a2.76,2.76,0,0,0,1.61,2.25,8.62,8.62,0,0,0,7.79,0,2.74,2.74,0,0,0,1.61-2.25v-26.4Z" style="fill:#37474f"></path><path d="M119.68,248.48c2.15,1.24,2.15,3.25,0,4.49a8.56,8.56,0,0,1-7.79,0c-2.15-1.24-2.15-3.25,0-4.49A8.62,8.62,0,0,1,119.68,248.48Z" style="fill:#455a64"></path><path d="M112.24,243v6.71a1.74,1.74,0,0,0,1,1.45,5.55,5.55,0,0,0,5,0,1.76,1.76,0,0,0,1-1.45V243Z" style="fill:#FF81AE"></path><path d="M118.3,241.59c1.38.8,1.38,2.1,0,2.9a5.55,5.55,0,0,1-5,0c-1.39-.8-1.39-2.1,0-2.9A5.55,5.55,0,0,1,118.3,241.59Z" style="fill:#FF81AE"></path><path d="M118.3,241.59c1.38.8,1.38,2.1,0,2.9a5.55,5.55,0,0,1-5,0c-1.39-.8-1.39-2.1,0-2.9A5.55,5.55,0,0,1,118.3,241.59Z" style="opacity:0.1"></path><path d="M125.16,251.85v17.09a2.73,2.73,0,0,0,1.62,2.24,8.54,8.54,0,0,0,7.78,0,2.73,2.73,0,0,0,1.62-2.24V251.85Z" style="fill:#FF81AE"></path><path d="M134.56,249.6c2.16,1.24,2.16,3.26,0,4.5a8.6,8.6,0,0,1-7.78,0c-2.15-1.24-2.15-3.26,0-4.5A8.6,8.6,0,0,1,134.56,249.6Z" style="fill:#FF81AE"></path><path d="M134.56,249.6c2.16,1.24,2.16,3.26,0,4.5a8.6,8.6,0,0,1-7.78,0c-2.15-1.24-2.15-3.26,0-4.5A8.6,8.6,0,0,1,134.56,249.6Z" style="fill:#fff;opacity:0.2"></path><path d="M127.12,244.16v6.72a1.78,1.78,0,0,0,1,1.45,5.55,5.55,0,0,0,5,0,1.76,1.76,0,0,0,1-1.45v-6.72Z" style="fill:#FF81AE"></path><path d="M127.12,244.16v6.72a1.78,1.78,0,0,0,1,1.45,5.55,5.55,0,0,0,5,0,1.76,1.76,0,0,0,1-1.45v-6.72Z" style="fill:#fff;opacity:0.5"></path><ellipse cx="130.67" cy="244.16" rx="3.55" ry="2.05" style="fill:#FF81AE"></ellipse><ellipse cx="130.67" cy="244.16" rx="3.55" ry="2.05" style="fill:#fff;opacity:0.7000000000000001"></ellipse></g></svg>
